<svg width="270" height="190" fill="none" xmlns="http://www.w3.org/2000/svg"><g clip-path="url(#clip0)"><path d="M270 0H0v190h270V0z" fill="#fff"/><path d="M270.908 0h-272.7v190h272.7V0z" fill="#ECEFF1"/><path d="M249.361 19.297v146.211L21.641 19.297h227.72z" stroke="#DEE3E6" stroke-width="2"/><path d="M227.85 165.508v23.75m-181.73 0v-23.75 23.75z" stroke="#DEE3E6" stroke-width="2" stroke-linejoin="round"/><path d="M227.85 165.508H46.12M127.148 172.188h-5.928v5.937h5.928v-5.937zM139.005 172.188h-5.928v5.937h5.928v-5.937zM150.861 172.188h-5.928v5.937h5.928v-5.937zM72.823 37.11h40.796m-40.796 69.023h40.796-40.796zm87.527 0h40.797-40.797zm0-69.024h40.797-40.797zM221.962 2.227a29.585 29.585 0 00-4.407 15.586c0 16.396 13.27 29.687 29.64 29.687 8.854 0 16.8-3.887 22.232-10.05M27.85 81.64v-5.937H21.92v5.938h5.929zM27.85 93.516v-5.938H21.92v5.938h5.929zM27.85 130.625v-5.937H21.92v5.937h5.929zM27.85 117.266v-5.938H21.92v5.938h5.929zM21.921 91.29H-1.792" stroke="#DEE3E6" stroke-width="2"/><path d="M.13 49.727h48.215v49.726h11.868v13.359H39.444v36.368H.131" stroke="#DEE3E6" stroke-width="2"/><path d="M196.857 94.004c-13.057-.139-23.528-10.842-23.389-23.905.139-13.064 10.836-23.541 23.892-23.402 13.056.139 23.527 10.842 23.388 23.906-.139 13.063-10.835 23.54-23.891 23.401z" stroke="#FF7DA0" stroke-width="3"/><path d="M114.519 92.336a23.63 23.63 0 01-13.134-3.986 23.667 23.667 0 01-3.583-36.395 23.628 23.628 0 0125.764-5.128 23.664 23.664 0 017.67 38.581 23.63 23.63 0 01-16.717 6.928zM155.823 145.671a23.634 23.634 0 01-13.14-3.977 23.663 23.663 0 01-3.605-36.398 23.639 23.639 0 0125.767-5.137 23.65 23.65 0 0114.599 21.856 23.663 23.663 0 01-6.917 16.72 23.64 23.64 0 01-16.704 6.936v0z" stroke="#64ACFF" stroke-width="3"/><path d="M74.662 145.671a23.632 23.632 0 01-13.14-3.977 23.654 23.654 0 01-10.07-24.281 23.66 23.66 0 016.465-12.117 23.629 23.629 0 0136.38 3.575 23.666 23.666 0 01-2.931 29.864 23.639 23.639 0 01-16.704 6.936zM155.802 115.802v12.426M106.128 68.681a8.4 8.4 0 015.18-7.757 8.385 8.385 0 019.144 1.82 8.399 8.399 0 01-1.272 12.918 8.385 8.385 0 01-10.595-1.044 8.4 8.4 0 01-2.457-5.937z" stroke="#FF7DA0" stroke-width="3"/><path d="M67.844 115.446h12.9v12.908h-12.9v-12.908zM197.65 60.918l9.122 9.127-9.122 9.128-9.122-9.128 9.122-9.127z" stroke="#64ACFF" stroke-width="3"/></g><defs><clipPath id="clip0"><path fill="#fff" d="M0 0h270v190H0z"/></clipPath></defs></svg>