<svg width="135" height="155" fill="none" xmlns="http://www.w3.org/2000/svg"><path d="M79.351 28.48a26.48 26.48 0 10-52.959 0 26.48 26.48 0 0052.96 0zM77.385 69.828H29.309A27.31 27.31 0 002 97.138V125h102.633V97.138a27.31 27.31 0 00-27.248-27.31z" stroke="#64ACFF" stroke-width="3"/><path d="M78 98h54v54H78V98z" fill="#fff"/><path d="M97.68 115.853h-4.83m24.65 0h-13.823M78 98h54v54H78V98z" stroke="#64ACFF" stroke-width="3"/><path d="M97.68 115.853h-4.83m24.65 0h-13.823M97.676 135.842a2.998 2.998 0 003 3 3 3 0 10-3-3zM117.5 135.842h-13.823m-5.997 0h-4.83 4.83zM106.336 125.847a3.003 3.003 0 003.001 3.001 3 3 0 10-3.001-3.001zM117.5 125.847h-5.16m-5.997 0H92.85h13.493zM97.676 115.853a2.998 2.998 0 003 3 3 3 0 10-3-3z" stroke="#FF7DA0" stroke-width="3"/></svg>