<svg width="130" height="129" fill="none" xmlns="http://www.w3.org/2000/svg"><path d="M90.5 63.5c0 13.78-11.39 25-25.5 25s-25.5-11.22-25.5-25 11.39-25 25.5-25 25.5 11.22 25.5 25z" stroke="#64ACFF" stroke-width="3"/><path d="M73.492 3.14H56.507v10.918C47.211 15.929 42.91 17.83 36 22.5l-8-8-12.5 12 8 8C18 42 16 47 14.5 55.306H3.127l.002 17.59H14C16.2 83.162 18.5 87.5 23 94l-8 8 12.5 12.5 8-8c7.787 5.151 12.75 6.531 21.007 8.5v10.669h16.985V115c8.086-1.731 13.008-3.5 21.008-8.5l8 7.5 12.5-12.5-8.146-7.373C111.969 86.19 114 81.5 116 72.897h10.871V55.305H115.5c-2.036-8.799-3.863-12.924-8.646-20.623L114.5 27 102 14.5l-7.885 8.05c-6.585-4.271-11.085-6.182-20.623-8.492V3.139z" stroke="#64ACFF" stroke-width="3"/><path d="M77.124 121.89c7.507-1.606 12.076-3.249 19.502-7.89M122.57 51.629C121.086 44.097 119.519 39.5 115 32M65 48c19.498 0 21.498 29.5 0 31" stroke="#FF7DA0" stroke-width="3"/></svg>