<svg width="270" height="190" fill="none" xmlns="http://www.w3.org/2000/svg"><g clip-path="url(#clip0)"><path d="M0 0h270v190H0V0z" fill="#ECEFF1"/><path d="M247.255 19.297v146.211L22.011 19.297h225.244z" stroke="#DEE3E6" stroke-width="2"/><path d="M225.978 165.508v23.75m-179.755 0v-23.75 23.75z" stroke="#DEE3E6" stroke-width="2" stroke-linejoin="round"/><path d="M225.978 165.508H46.223h179.755zm-104.185 6.68h5.87v5.937h-5.87v-5.937zm11.739 0h5.87v5.937h-5.87v-5.937zm11.74 0h5.869v5.937h-5.869v-5.937zM72.636 37.11h40.353m-40.353 69.023h40.353-40.353zm86.576 0h40.353-40.353zm0-69.024h40.353-40.353z" stroke="#DEE3E6" stroke-width="2"/><path d="M121.117 111.391c9.177-9.284 9.177-24.335 0-33.619a23.313 23.313 0 00-33.235 0c-9.176 9.284-9.176 24.335 0 33.619a23.31 23.31 0 0033.235 0v0zM182.118 111.391c9.176-9.284 9.176-24.335 0-33.619a23.312 23.312 0 00-33.234 0c-9.179 9.284-9.179 24.335 0 33.619a23.31 23.31 0 0033.234 0v0z" stroke="#FF7DA0" stroke-width="3"/><path d="M170.97 92.926H148m21.439 6.084H148m27 5.525a12.777 12.777 0 01-9 3.703c-1.672 0-3.327-.327-4.871-.962a12.748 12.748 0 01-4.129-2.741 12.641 12.641 0 01-2.759-4.103 12.564 12.564 0 010-9.677 12.645 12.645 0 012.76-4.102 12.715 12.715 0 014.129-2.741 12.797 12.797 0 0113.87 2.74v17.883z" stroke="#FF7DA0" stroke-width="3"/><path d="M23.478 91.29H0M221.539 2.226a29.8 29.8 0 00-4.365 15.585c0 16.397 13.139 29.688 29.348 29.688 4.164.005 8.281-.89 12.077-2.622a29.308 29.308 0 009.934-7.427L221.539 2.227zM29.348 75.703v5.938h-5.87v-5.938h5.87zm0 11.875v5.938h-5.87v-5.938h5.87zm0 37.11v5.937h-5.87v-5.937h5.87zm0-13.36v5.938h-5.87v-5.938h5.87z" stroke="#DEE3E6" stroke-width="2"/><path d="M.734 49.727h47.69v49.726h11.74v13.359H39.62v36.368H.734" stroke="#DEE3E6" stroke-width="2"/><path d="M113 85.022h-12.364a4.66 4.66 0 00-3.278 1.344A4.566 4.566 0 0096 89.61c0 1.217.489 2.384 1.358 3.245a4.66 4.66 0 003.278 1.344h7.341a5.05 5.05 0 013.552 1.456A4.946 4.946 0 01113 99.17a4.947 4.947 0 01-1.471 3.516 5.052 5.052 0 01-3.552 1.456H96m7.727-25.24v5.354-5.354zm0 26.005v5.354-5.354z" stroke="#FF7DA0" stroke-width="3"/><path d="M120.998 132.516L104 149.839l17.694 18.033M125.607 150.057H105.7M144.748 150.057h-9.953M163.89 150.057h-7.657M148.991 58.708l17.036-17.362-17.733-18.08M144.275 41.284h19.907M125.134 41.284h9.953M105.992 41.284h6.891" stroke="#64ACFF" stroke-width="3"/></g><defs><clipPath id="clip0"><path fill="#fff" d="M0 0h270v190H0z"/></clipPath></defs></svg>