<svg width="254" height="146" fill="none" xmlns="http://www.w3.org/2000/svg"><path stroke="#64ACFF" stroke-width="3" d="M31.5 1.5h190v120h-190zM1.5 10.5h30v99h-30zM221.5 10.5h31v99h-31z"/><path fill="#FF7DA0" d="M111 32h92v36h-92z"/><path fill="#fff" d="M197 35h3v3h-3zM197 62h3v3h-3zM114 35h3v3h-3zM114 62h3v3h-3zM151.935 54.043l-11.777-5.121v-2.836l11.777-5.098v3.34l-8.215 3.14 8.215 3.259v3.316zm1.69 2.25l4.254-17.766h2.473l-4.301 17.766h-2.426zm8.428-2.238v-3.317l8.227-3.234-8.227-3.2v-3.292l11.789 5.097v2.813l-11.789 5.133z"/><path stroke="#64ACFF" stroke-width="3" d="M31.5 1.5h190v14h-190zM50 8.5h125.817M12.206 16.34h17.84M50 33.508h47M50 42.5h27.932m4.568 0H97M50 51.5h47M50 60.5h17.5"/><circle cx="208.5" cy="8.5" r="2" stroke="#64ACFF" stroke-width="3"/><circle cx="242.5" cy="19.5" r="2" stroke="#64ACFF" stroke-width="3"/><circle cx="196.5" cy="8.5" r="2" stroke="#64ACFF" stroke-width="3"/><circle cx="230.5" cy="19.5" r="2" stroke="#64ACFF" stroke-width="3"/><path fill="#FF7DA0" d="M50 84h153v27H50z"/><path d="M78.58 104V91.115h4.175c1.582 0 2.613.065 3.094.194.738.193 1.356.615 1.854 1.265.498.645.747 1.48.747 2.505 0 .791-.143 1.456-.43 1.995-.287.54-.654.964-1.099 1.275-.44.304-.888.507-1.345.606-.62.123-1.52.185-2.698.185h-1.696V104H78.58zm2.602-10.705v3.656h1.424c1.025 0 1.71-.067 2.056-.202.346-.135.615-.346.809-.633.2-.287.299-.62.299-1.002 0-.469-.138-.855-.413-1.16a1.799 1.799 0 00-1.046-.571c-.31-.059-.935-.088-1.872-.088h-1.257zm11.832 4.219l-2.241-.405c.252-.902.686-1.57 1.3-2.003.616-.434 1.53-.65 2.743-.65 1.102 0 1.922.13 2.461.395.539.257.917.588 1.134.993.222.398.334 1.134.334 2.206l-.027 2.883c0 .82.038 1.426.115 1.819.082.387.231.803.448 1.248h-2.444a9.047 9.047 0 01-.237-.729 4.427 4.427 0 00-.088-.291 4.436 4.436 0 01-1.353.923c-.48.205-.993.308-1.538.308-.961 0-1.72-.261-2.277-.782-.55-.522-.826-1.181-.826-1.978 0-.527.126-.996.378-1.406a2.437 2.437 0 011.055-.95c.457-.222 1.113-.415 1.969-.58 1.154-.216 1.954-.418 2.399-.606v-.246c0-.474-.117-.811-.352-1.01-.234-.206-.676-.308-1.327-.308-.44 0-.782.088-1.028.263-.246.17-.445.472-.598.906zm3.305 2.004c-.317.105-.817.231-1.503.377-.686.147-1.134.291-1.345.431-.322.229-.483.519-.483.87 0 .346.129.645.387.897.257.252.585.378.984.378.445 0 .87-.147 1.274-.44.3-.222.496-.495.59-.817.064-.211.096-.612.096-1.204v-.492zm4.3-4.852h2.628l2.232 6.627 2.18-6.627h2.558l-3.296 8.982-.589 1.626c-.217.545-.425.961-.624 1.248a2.538 2.538 0 01-.677.695 2.862 2.862 0 01-.94.422 4.86 4.86 0 01-1.257.149c-.475 0-.94-.05-1.397-.149l-.22-1.934c.387.076.735.114 1.046.114.574 0 .999-.17 1.274-.509.275-.334.486-.762.633-1.284l-3.551-9.36zM117.912 104V91.115h2.47v4.64c.761-.866 1.664-1.3 2.707-1.3 1.136 0 2.077.413 2.821 1.24.744.82 1.116 2 1.116 3.541 0 1.594-.381 2.822-1.142 3.683-.756.861-1.676 1.292-2.76 1.292a3.47 3.47 0 01-1.582-.396 3.822 3.822 0 01-1.336-1.186V104h-2.294zm2.452-4.87c0 .968.152 1.682.457 2.145.428.657.996.985 1.705.985.545 0 1.008-.232 1.389-.695.387-.468.58-1.204.58-2.206 0-1.066-.193-1.834-.58-2.302-.387-.475-.882-.712-1.486-.712-.591 0-1.083.231-1.476.694-.393.457-.589 1.154-.589 2.092zm15.401 4.87v-1.397c-.34.498-.788.89-1.345 1.177a3.734 3.734 0 01-1.749.431 3.43 3.43 0 01-1.687-.413 2.438 2.438 0 01-1.081-1.16c-.223-.498-.334-1.187-.334-2.066v-5.906h2.469v4.29c0 1.312.044 2.117.132 2.416.094.293.261.527.501.703.24.17.545.255.914.255.422 0 .8-.114 1.134-.343.334-.234.562-.521.685-.861.124-.346.185-1.187.185-2.523v-3.937h2.47V104h-2.294zm9.74-9.334v1.969h-1.687v3.761c0 .762.015 1.208.044 1.336a.568.568 0 00.22.308.715.715 0 00.422.123c.228 0 .559-.079.993-.237l.211 1.916c-.575.246-1.225.369-1.952.369-.445 0-.846-.073-1.204-.22-.357-.152-.621-.345-.791-.58-.164-.24-.278-.562-.342-.967-.053-.287-.08-.867-.08-1.74v-4.07h-1.133v-1.968h1.133v-1.855l2.479-1.44v3.295h1.687zm6.595 0v1.969h-1.688v3.761c0 .762.015 1.208.044 1.336a.568.568 0 00.22.308.717.717 0 00.422.123c.228 0 .559-.079.993-.237l.211 1.916c-.574.246-1.225.369-1.951.369-.446 0-.847-.073-1.205-.22-.357-.152-.621-.345-.791-.58-.164-.24-.278-.562-.342-.967-.053-.287-.079-.867-.079-1.74v-4.07H146.8v-1.968h1.134v-1.855l2.478-1.44v3.295h1.688zm1.742 4.535c0-.82.202-1.614.607-2.382a4.164 4.164 0 011.714-1.758c.744-.404 1.573-.606 2.487-.606 1.412 0 2.569.46 3.471 1.38.903.914 1.354 2.071 1.354 3.472 0 1.412-.457 2.584-1.371 3.515-.908.926-2.054 1.389-3.437 1.389a5.447 5.447 0 01-2.452-.58 3.99 3.99 0 01-1.766-1.696c-.405-.75-.607-1.662-.607-2.734zm2.531.132c0 .926.22 1.635.66 2.127.439.492.981.738 1.626.738.644 0 1.183-.246 1.617-.738.439-.492.659-1.207.659-2.145 0-.914-.22-1.617-.659-2.109-.434-.492-.973-.738-1.617-.738-.645 0-1.187.246-1.626.738-.44.492-.66 1.201-.66 2.127zM174.508 104h-2.47v-4.764c0-1.008-.053-1.658-.158-1.95a1.367 1.367 0 00-.519-.695c-.234-.164-.518-.246-.852-.246-.428 0-.812.117-1.152.351-.34.235-.574.545-.703.932-.123.387-.184 1.102-.184 2.144V104H166v-9.334h2.294v1.371c.814-1.055 1.84-1.582 3.076-1.582.545 0 1.043.1 1.494.299.451.193.791.442 1.02.747.234.305.395.65.483 1.037.094.387.141.94.141 1.661V104z" fill="#fff"/><path d="M180.672 133.884L180 99.144a1.149 1.149 0 01.704-1.057 1.133 1.133 0 011.239.247l23.042 23.203a1.153 1.153 0 01-.173 1.762 1.135 1.135 0 01-.631.195l-8.905-.27 8.968 16.073-6.427 3.703-9.116-16.251-5.995 7.853a1.13 1.13 0 01-1.825-.05 1.155 1.155 0 01-.209-.668z" fill="#fff" stroke="#64ACFF" stroke-width="3"/></svg>