<svg width="137" height="144" fill="none" xmlns="http://www.w3.org/2000/svg"><path stroke="#64ACFF" stroke-width="3" d="M0 142.5h137M55.5 88.5h26v54h-26zM16.5 107.5h26v35h-26zM96.5 60.5h26v82h-26z"/><path d="M65.319 68.471l4.11-23.83-24.777-4.47M51.576 57.067l16.306-11.419M35.896 68.046l8.153-5.71M20.216 79.025l5.645-3.953" stroke="#FF86AD" stroke-width="3"/><path d="M110.452 42.904c11.295 0 20.452-9.157 20.452-20.452C130.904 11.157 121.747 2 110.452 2 99.157 2 90 11.157 90 22.452c0 11.295 9.157 20.452 20.452 20.452z" stroke="#FF7DA0" stroke-width="3" stroke-linejoin="round"/><path d="M110.451 35.096c6.983 0 12.644-5.661 12.644-12.644 0-6.983-5.661-12.644-12.644-12.644-6.983 0-12.643 5.66-12.643 12.644 0 6.983 5.66 12.644 12.643 12.644z" stroke="#FF7DA0" stroke-width="3" stroke-linejoin="round"/></svg>