<svg width="270" height="190" fill="none" xmlns="http://www.w3.org/2000/svg"><g clip-path="url(#clip0)"><path d="M270 0H0v191.21h270V0z" fill="#13171C"/><path fill-rule="evenodd" clip-rule="evenodd" d="M192.195 80.996c16.121 0 29.189-13.292 29.189-29.688s-13.068-29.687-29.189-29.687c-16.12 0-29.19 13.291-29.19 29.687s13.07 29.688 29.19 29.688z" stroke="#27282D" stroke-width="2"/><path d="M200.951 51.308c0-4.918-3.92-8.906-8.756-8.906s-8.757 3.988-8.757 8.906c0 4.92 3.921 8.907 8.757 8.907s8.756-3.988 8.756-8.907z" stroke="#27282D" stroke-width="2"/><path fill-rule="evenodd" clip-rule="evenodd" d="M240.328 161.797L36.203 28.203v133.594h204.125z" stroke="#27282D" stroke-width="2"/><path d="M45.68 151.406V49.564M246.89 132.109V30.267M238.142 43.905V30.267M26.727 124.061v-13.637M238.142 83.983V70.345M26.727 164.139v-13.637M238.142 63.202V49.564M26.727 143.358V129.72M27.454 118.008H2.668M23.08 18.551c0-2.047-1.631-3.707-3.644-3.707-2.014 0-3.646 1.66-3.646 3.707v.007c0 2.048 1.633 3.708 3.646 3.708s3.645-1.66 3.645-3.708v-.007zM194.473 173.301h-5.838v5.937h5.838v-5.937zM206.149 173.301h-5.838v5.937h5.838v-5.937zM242.635 173.301h-5.838v5.937h5.838v-5.937zM229.5 173.301h-5.838v5.937h5.838v-5.937zM204.689 179.238V190M79.54.371v9.277h112.014v11.875" stroke="#27282D" stroke-width="2"/><path d="M94.357 116.6V67.902l39.059-22.436 38.647 22.431v48.708l-38.647 21.813L94.357 116.6z" stroke="#64ACFF" stroke-width="3"/><path transform="matrix(.86939 .49413 -.48154 .87642 92.857 69.12)" stroke="#64ACFF" stroke-width="3" d="M0-1.5h16.439"/><path transform="matrix(.84678 -.53194 .51906 .85474 94.698 117.694)" stroke="#64ACFF" stroke-width="3" d="M0-1.5h16.878"/><path stroke="#64ACFF" stroke-width="3" d="M133.551 138.642v-16.245M133.551 60.835V44.589"/><path transform="matrix(-.83175 -.55515 .54217 -.84027 172.562 115.822)" stroke="#64ACFF" stroke-width="3" d="M0-1.5h16.172"/><path transform="matrix(-.868 .49658 -.48397 -.87508 171.722 66.658)" stroke="#64ACFF" stroke-width="3" d="M0-1.5h15.496"/><path d="M107.809 107.726V75.92l25.538-14.637 25.265 14.632v31.816l-25.265 14.229-25.538-14.234zM66 48.2c0-1.688.492-3.338 1.414-4.741a8.423 8.423 0 013.766-3.144 8.26 8.26 0 014.848-.485 8.348 8.348 0 014.296 2.335 8.58 8.58 0 012.297 4.37 8.67 8.67 0 01-.478 4.93 8.504 8.504 0 01-3.09 3.83 8.29 8.29 0 01-4.662 1.44 8.32 8.32 0 01-5.934-2.5A8.609 8.609 0 0166 48.2zM173 145.839c0-1.688.492-3.338 1.414-4.741a8.424 8.424 0 013.766-3.144 8.253 8.253 0 014.848-.485 8.349 8.349 0 014.296 2.335 8.58 8.58 0 012.297 4.37 8.679 8.679 0 01-.478 4.931 8.512 8.512 0 01-3.09 3.83 8.291 8.291 0 01-4.662 1.438 8.316 8.316 0 01-5.933-2.5 8.606 8.606 0 01-2.458-6.034z" stroke="#FF7DA0" stroke-width="3"/><path d="M203 77.297h-8v-8.136h8v8.136z" stroke="#64ACFF" stroke-width="3"/><path fill="#13171C" d="M156 79h5v15h-5z"/><path fill="#FF7DA0" d="M157 82h3v3h-3z"/></g><defs><clipPath id="clip0"><path fill="#fff" d="M0 0h270v190H0z"/></clipPath></defs></svg>