<svg width="134" height="104" fill="none" xmlns="http://www.w3.org/2000/svg"><g clip-path="url(#clip0)" stroke="#64ACFF" stroke-width="3"><circle cx="58.365" cy="41.365" r="15.302" transform="rotate(-55.47 58.365 41.365)"/><path d="M70.828 50.623l7.399 5.09m-.288 2.553l2.897-4.21 18.53 12.748-2.897 4.211z"/><path d="M127 58v6m0-9V10a5 5 0 00-5-5H11a5 5 0 00-5 5v70a5 5 0 005 5h111a5 5 0 005-5V67"/><path d="M0 85.563C0 85.251.252 85 .563 85h132.874c.311 0 .563.252.563.563v0C134 91.879 128.879 97 122.563 97H11.437C5.122 97 0 91.88 0 85.562v0z" stroke-linejoin="round"/><path d="M62 38l-8 8m8 0l-8-8"/></g><defs><clipPath id="clip0"><path fill="#fff" d="M0 0h134v104H0z"/></clipPath></defs></svg>